<svg xmlns="http://www.w3.org/2000/svg" version="1.1" xmlns:xlink="http://www.w3.org/1999/xlink" xmlns:svgjs="http://svgjs.dev/svgjs" width="1500" height="1500" viewBox="0 0 1500 1500"><rect width="1500" height="1500" fill="#ffffff"></rect><g transform="matrix(0.6666666666666666,0,0,0.6666666666666666,249.39393939393938,506.99162616444454)"><svg viewBox="0 0 396 192" data-background-color="#ffffff" preserveAspectRatio="xMidYMid meet" height="727" width="1500" xmlns="http://www.w3.org/2000/svg" xmlns:xlink="http://www.w3.org/1999/xlink"><g id="tight-bounds" transform="matrix(1,0,0,1,0.2400000000000091,0.26741631999998106)"><svg viewBox="0 0 395.52 191.46516736000004" height="191.46516736000004" width="395.52"><g><svg viewBox="0 0 395.52 191.46516736000004" height="191.46516736000004" width="395.52"><g><svg viewBox="0 0 395.52 191.46516736000004" height="191.46516736000004" width="395.52"><g id="textblocktransform"><svg viewBox="0 0 395.52 191.46516736000004" height="191.46516736000004" width="395.52" id="textblock"><g><svg viewBox="0 0 395.52 94.26784982935155" height="94.26784982935155" width="395.52"><g transform="matrix(1,0,0,1,0,0)"><svg width="395.52" viewBox="-0.75 -20.4 90.04 20.95" height="94.26784982935155" data-palette-color="#000000"><g class="wordmark-text-0" data-fill-palette-color="primary" id="text-0"><path d="M10.85-20.4Q11.6-20.4 12.28-19.93 12.95-19.45 12.95-18.8 12.95-18.15 12.33-17.68 11.7-17.2 10.95-17.2 10.2-17.2 9.58-17.75 8.95-18.3 8.95-19L8.95-19Q8.95-20.4 10.85-20.4L10.85-20.4ZM1.8 0.55L1.8 0.55Q-0.75 0.55-0.75-2.75L-0.75-2.75Q-0.75-5.45 2.2-10.23 5.15-15 6.95-15.05L6.95-15.05Q7.45-15.05 8.08-14.65 8.7-14.25 8.7-13.85L8.7-13.85Q8.45-13.5 8.1-13.08 7.75-12.65 7.35-12.15 6.95-11.65 6.25-10.73 5.55-9.8 4.9-8.95L4.9-8.95Q1.15-4.1 1.15-2.27 1.15-0.45 2.4-0.45L2.4-0.45Q3.45-0.45 5.25-1.6L5.25-1.6Q9.45-4.2 11.9-7.3L11.9-7.3Q12.8-8.45 13.13-8.45 13.45-8.45 13.45-8.05 13.45-7.65 12.3-6.45 11.15-5.25 10.48-4.55 9.8-3.85 9.55-3.63 9.3-3.4 8.63-2.78 7.95-2.15 7.6-1.9 7.25-1.65 6.6-1.15 5.95-0.65 5.45-0.43 4.95-0.2 4.3 0.1L4.3 0.1Q3.25 0.55 1.8 0.55Z" fill="#000000" data-fill-palette-color="primary"></path><path d="M39.95-14.95L39.95-14.95 40.65-15.1Q41.2-15.1 41.7-14.65 42.2-14.2 42.2-13.95 42.2-13.7 39.1-9.13 36-4.55 36-2.75L36-2.75Q36-2.6 36.05-2.45L36.05-2.45Q36.3-1.3 37.15-1.3L37.15-1.3Q39.75-1.3 46.65-9.9L46.65-9.9Q46.8-10.1 47-10.1 47.2-10.1 47.2-9.73 47.2-9.35 46.75-8.75L46.75-8.75Q40.35-0.2 37-0.2L37-0.2Q36.55-0.2 36.15-0.35L36.15-0.35Q33.95-1.2 33.95-3.65L33.95-3.65Q33.95-4.5 34.15-5.35L34.15-5.35 31.05-2.35Q28.1 0.25 26.77 0.25 25.45 0.25 24.25-0.6L24.25-0.6Q22.9-1.6 22.9-3.25L22.9-3.25Q22.9-6.9 28-11.98 33.1-17.05 37.35-17.05L37.35-17.05Q39-17.05 39.55-15.9L39.55-15.9Q39.7-15.5 39.8-15.23 39.9-14.95 39.95-14.95ZM25-2.65L25-2.65Q25-0.85 26.25-0.85L26.25-0.85Q29.15-0.85 34.15-7.2L34.15-7.2 39.45-14.5Q39.05-15.2 38.15-15.2L38.15-15.2Q35.1-15.2 30.05-10.48 25-5.75 25-2.65ZM54.79-20.4Q55.54-20.4 56.22-19.93 56.9-19.45 56.9-18.8 56.9-18.15 56.27-17.68 55.65-17.2 54.9-17.2 54.15-17.2 53.52-17.75 52.9-18.3 52.9-19L52.9-19Q52.9-20.4 54.79-20.4L54.79-20.4ZM45.75 0.55L45.75 0.55Q43.2 0.55 43.2-2.75L43.2-2.75Q43.2-5.45 46.15-10.23 49.1-15 50.9-15.05L50.9-15.05Q51.4-15.05 52.02-14.65 52.65-14.25 52.65-13.85L52.65-13.85Q52.4-13.5 52.04-13.08 51.7-12.65 51.29-12.15 50.9-11.65 50.2-10.73 49.5-9.8 48.85-8.95L48.85-8.95Q45.09-4.1 45.09-2.27 45.09-0.45 46.35-0.45L46.35-0.45Q47.4-0.45 49.2-1.6L49.2-1.6Q53.4-4.2 55.85-7.3L55.85-7.3Q56.75-8.45 57.07-8.45 57.4-8.45 57.4-8.05 57.4-7.65 56.25-6.45 55.1-5.25 54.42-4.55 53.75-3.85 53.5-3.63 53.25-3.4 52.57-2.78 51.9-2.15 51.54-1.9 51.2-1.65 50.54-1.15 49.9-0.65 49.4-0.43 48.9-0.2 48.25 0.1L48.25 0.1Q47.2 0.55 45.75 0.55ZM79.14-0.6L79.14-0.6Q75.74-0.6 75.74-3.75L75.74-3.75Q75.74-5.55 77.34-8.68 78.94-11.8 80.69-13.95L80.69-13.95Q77.59-12.45 73.54-8.53 69.49-4.6 67.89-0.3L67.89-0.3Q67.64 0.1 67.04 0.1L67.04 0.1Q65.84 0.1 65.84-1.25L65.84-1.25Q66.34-4 68.09-7.55L68.09-7.55Q68.64-8.7 71.34-14.25L71.34-14.25Q67.44-11.7 64.72-8.78 61.99-5.85 59.67-2.9 57.34 0.05 57.04 0.05L57.04 0.05Q56.39 0.05 55.92-0.55 55.44-1.15 55.44-1.75L55.44-1.75Q55.44-2.65 58.04-8.35L58.04-8.35 55.04-5.2Q53.94-4.1 53.67-4.1 53.39-4.1 53.39-4.42 53.39-4.75 53.79-5.15L53.79-5.15Q55.64-7 57.09-8.85 58.54-10.7 61.89-15.45L61.89-15.45Q62.44-16.2 63.44-16.2 64.44-16.2 64.44-15.25L64.44-15.25Q64.44-14.9 61.79-10.38 59.14-5.85 58.84-4.7L58.84-4.7Q60.89-6.95 64.99-10.75L64.99-10.75Q71.14-16.45 73.09-16.45L73.09-16.45Q73.69-16.45 74.19-16.1 74.69-15.75 74.69-15.33 74.69-14.9 72.74-11.55L72.74-11.55Q70.84-8.1 70.64-7.45L70.64-7.45Q76.19-12.1 76.19-12.15L76.19-12.15Q80.89-15.8 82.94-15.8L82.94-15.8Q83.54-15.8 84.07-15.43 84.59-15.05 84.59-14.55L84.59-14.55Q84.59-14.45 81.34-10.33 78.09-6.2 77.69-3.55L77.69-3.55Q77.59-2.65 78.04-2.2 78.49-1.75 79.67-1.75 80.84-1.75 83.12-3.38 85.39-5 87.74-7.75L87.74-7.75Q88.64-8.75 88.97-8.75 89.29-8.75 89.29-8.5L89.29-8.5Q89.29-8.15 88.84-7.7L88.84-7.7Q86.39-4.75 83.57-2.68 80.74-0.6 79.14-0.6Z" fill="#000000" data-fill-palette-color="secondary"></path></g></svg></g></svg></g><g transform="matrix(1,0,0,1,116.180890598442,116.52222674566555)"><svg viewBox="0 0 163.15821880311597 74.94294061433449" height="74.94294061433449" width="163.15821880311597"><g transform="matrix(1,0,0,1,0,0)"><svg width="163.15821880311597" viewBox="1.45 -29.6 71.28999999999999 32.75" height="74.94294061433449" data-palette-color="#007fff"><g class="slogan-text-1" data-fill-palette-color="secondary" id="text-1"><path d="M19.35-25.5L19.35-25.5Q19.95-26.6 19.95-27.2L19.95-27.2Q19.95-28.25 19.1-28.25L19.1-28.25Q18.4-28.25 17.35-27.45L17.35-27.45Q13.35-24.35 9.6-17.65L9.6-17.65Q6.6-12.25 5.2-8.4L5.2-8.4Q8.65-10.75 12.93-16.05 17.2-21.35 19.35-25.5ZM4.45-6.4L4.45-6.4Q3.85-4.7 3.8-4.13 3.75-3.55 3.75-2.58 3.75-1.6 4.25-0.8L4.25-0.8Q5.1 0.55 7.1-0.6L7.1-0.6Q8.6-1.4 10.9-3.53 13.2-5.65 14.45-7.4L14.45-7.4Q14.55-7.55 14.75-7.55L14.75-7.55Q15.2-7.55 15-6.9L15-6.9Q14.25-5.55 12.23-3.45 10.2-1.35 8.55-0.13 6.9 1.1 5.25 1.1L5.25 1.1Q1.45 1.1 1.45-2.6L1.45-2.6Q1.45-2.75 1.45-2.9L1.45-2.9Q1.65-6.4 5-13.48 8.35-20.55 11.05-24.15L11.05-24.15 12.6-26.1Q13.15-26.75 14.2-27.7L14.2-27.7Q16.2-29.6 18.32-29.6 20.45-29.6 21.2-28.3L21.2-28.3Q21.45-27.85 21.45-27 21.45-26.15 20.7-24.6L20.7-24.6Q15.55-15.65 4.45-6.4ZM16.25 0.55L16.25 0.55Q15.45 0.55 14.52 0.08 13.6-0.4 12.95-1.28 12.3-2.15 12.3-3.15 12.3-4.15 12.75-5.05L12.75-5.05Q13.75-7.15 15.97-9.13 18.2-11.1 20.6-12.5 23-13.9 24.4-14.25 25.8-14.6 27.12-14.6 28.45-14.6 29.4-13.93 30.35-13.25 30.35-12.5L30.35-12.5Q30.35-12.25 30.3-12.2 30.25-12.15 30.05-12.25L30.05-12.25Q29.45-13.2 27.57-13.2 25.7-13.2 23.32-11.98 20.95-10.75 18.85-8.9L18.85-8.9Q17.1-7.25 15.77-5.18 14.45-3.1 14.45-2.15L14.45-2.15Q14.45-0.3 15.5-0.3 16.55-0.3 18.7-2L18.7-2Q22.25-5 23.55-6.4L23.55-6.4Q28.15-11.35 28.5-11.35L28.5-11.35Q29.1-11.35 29.95-11 30.8-10.65 30.5-10.15L30.5-10.15Q27.95-6.55 27.5-2.9L27.5-2.9Q27.45-2.45 27.45-1.75 27.45-1.05 27.85-0.6L27.85-0.6Q28.6 0.2 29.9-0.5 31.2-1.2 33.52-3.3 35.85-5.4 37.25-7.4L37.25-7.4Q37.45-7.65 37.7-7.53 37.95-7.4 37.95-7.3L37.95-7.3Q37.95-6.55 35.57-4.03 33.2-1.5 31.95-0.6L31.95-0.6Q29.6 1.15 27.6 1.15L27.6 1.15Q25.7 1.15 25.05-0.75L25.05-0.75Q24.9-1.35 24.9-2.1L24.9-2.1Q24.9-4.35 25.85-6.85L25.85-6.85Q25.65-6.75 24-4.85 22.35-2.95 20.17-1.2 18 0.55 16.25 0.55ZM50.6-13.5L50.6-13.5Q51.5-13.5 52.75-12.58 54-11.65 54.15-10.75L54.15-10.75Q54.2-10.4 54.2-10.1L54.2-10.1Q54.2-7.85 52-5.28 49.8-2.7 47.05-0.9L47.05-0.9Q42.8 2 38.6 2L38.6 2Q36.9 2 35.9 1.55L35.9 1.55Q35.1 1.15 37.9 1.15L37.9 1.15Q40.95 1.15 45.8-2.45L45.8-2.45Q50.5-5.75 51.5-10.35L51.5-10.35Q51.65-11.05 51.47-11.78 51.3-12.5 50.6-12.5L50.6-12.5Q48.35-12.5 44.7-9.35L44.7-9.35Q43.15-8.05 41.52-5.85 39.9-3.65 39.9-2.25L39.9-2.25Q39.9-2.05 39.97-1.83 40.05-1.6 39.8-1.1L39.8-1.1Q39.15 0.2 37.95-1.25L37.95-1.25Q37.65-2 37.65-2.8L37.65-2.8Q37.65-5.1 38.35-7.65L38.35-7.65Q38.15-7.45 37.47-6.43 36.8-5.4 35.9-4.4L35.9-4.4Q35.45-3.9 35.2-4.4L35.2-4.4Q35.15-4.5 35.15-4.67 35.15-4.85 35.35-5.1L35.35-5.1Q39.25-9.95 39.9-11.4L39.9-11.4Q40.8-13.9 42.65-17.93 44.5-21.95 46.05-24.35L46.05-24.35Q49.25-29.4 52.65-29.4L52.65-29.4Q53.25-29.4 53.9-29.25L53.9-29.25 54.9-28.9Q56.35-28.05 56.35-26.73 56.35-25.4 55.55-23.85L55.55-23.85Q54.25-21.2 49.95-17.18 45.65-13.15 41.6-10.35L41.6-10.35Q40.6-8.55 40.05-5.65L40.05-5.65Q41.9-8.4 44.87-10.95 47.85-13.5 50.6-13.5ZM49-18L49-18Q54.95-24 54.95-26.9L54.95-26.9Q54.95-28.1 54.05-28.1L54.05-28.1Q53.35-28.1 52.15-27.2L52.15-27.2Q47-23.25 42.15-12.35L42.15-12.35Q45.55-14.6 49-18ZM56.59 0.5L56.59 0.5Q55.94 1.25 56.32 1.7 56.69 2.15 57.17 2.15 57.64 2.15 58.14 2L58.14 2Q60.29 1.35 62.32-0.58 64.34-2.5 64.34-4.5L64.34-4.5Q64.34-5.6 61.89-6.9L61.89-6.9Q60.74-7.5 60.59-7.6L60.59-7.6Q59.24-8.5 58.89-9.4L58.89-9.4Q58.19-8.2 56.64-5.95L56.64-5.95Q56.29-5.55 55.99-5.78 55.69-6 55.94-6.4L55.94-6.4Q57.99-9.2 58.64-11.1L58.64-11.1Q58.99-13.85 62.64-16.05 66.29-18.25 69.29-18.25L69.29-18.25Q71.19-18.25 71.97-17.57 72.74-16.9 72.74-16.25 72.74-15.6 72.37-14.75 71.99-13.9 70.84-13.15L70.84-13.15Q70.54-12.95 70.34-13.25L70.34-13.25Q70.24-13.55 70.77-14.08 71.29-14.6 71.44-15.5 71.59-16.4 70.64-16.6L70.64-16.6Q70.49-16.6 70.34-16.6L70.34-16.6Q68.39-16.6 65.47-15.15 62.54-13.7 60.89-11.4L60.89-11.4Q60.24-10.55 60.24-9.68 60.24-8.8 61.44-8.1L61.44-8.1Q61.94-7.8 63.14-7.15 64.34-6.5 64.84-6.2 65.34-5.9 66.04-5.25 66.74-4.6 66.79-4.05L66.79-4.05Q67.04-2.55 65.39-0.75L65.39-0.75Q63.04 1.85 58.39 2.9L58.39 2.9Q57.34 3.15 56.27 3.15 55.19 3.15 54.79 2.35L54.79 2.35Q54.64 2.15 54.64 1.73 54.64 1.3 55.44 0.35L55.44 0.35Q56.19-0.4 57.84-1.1L57.84-1.1Q57.99-1.15 58.09-1.05 58.19-0.95 58.14-0.8 58.09-0.65 57.62-0.45 57.14-0.25 56.59 0.5Z" fill="#000000" data-fill-palette-color="primary"></path></g></svg></g></svg></g></svg></g></svg></g></svg></g><defs></defs></svg><rect width="395.52" height="191.46516736000004" fill="none" stroke="none" visibility="hidden"></rect></g></svg></g></svg>